/* XPM */
static char *_98f38f08d414e3bc1a0fb6d98cb4f14xCJRh4SdtkdlaZd5[] = {
/* columns rows colors chars-per-pixel */
"64 64 7 1 ",
"  c black",
". c #ED1C24",
"X c #FFF200",
"o c #2F3699",
"O c #4D6DF3",
"+ c #00B7EF",
"@ c white",
/* pixels */
"oooooooooooooooooooooooooooXXXXXXXoooooooooooooooooooooooooooooo",
"ooooooooooooooooooooooooooXXXXXXXXXXoooooooooooooooooooooooooooo",
"ooooooooooooooooooooooooooXXXXXXXXXXXooooooooooooooooooooooooooo",
"ooooooooooooooooooooooooooXXXXXXXXXXXooooooooooooooooooooooooooo",
"ooooooooooooooooooooooooooXXXXXXXXXXXooooooooooooooooooooooooooo",
"oooooooooooooooooooooooooooXXXXXXXXXXooooooooooooooooooooooooooo",
"ooooooooooooooooooooooooooo.XXXXXXXXoooooooooooooooooooooooooooo",
"oooooooooooooooooooooooooo....oXXXX.oooooooooooooooooooooooooooo",
"oooooooooooooooooooooooooo...ooo....oooooooooooooooooooooooooooo",
"ooooooooooooooooooooooooo....ooo.....ooooooooooooooooooooooooooo",
"ooooooooooooooooooooooooo....ooo.....ooooooooooooooooooooooooooo",
"ooooooooooooooooooooooooo....ooo.....ooooooooooooooooooooooooooo",
"oooooooooo++++++++++++++....+ooo......oooooooooooooooooooooooooo",
"ooooooo+++++++++++++++++....++++......oooooooooooooooooooooooooo",
"oooo++++++++++++++++++++....++++......oooooooooooooooooooooooooo",
"oo++++++++++++++++++++++....+++.......oooooooooooooooooooooooooo",
"o+++++++++++++++++++++++....+++.+......++ooooooooooooooooooooooo",
"+++++++++++++++++++++++.....+++.+......++++++++ooooooooooooooooo",
"+++++++++++++++++++++++.....+++.+......++++++++++++++ooooooooooo",
"+++++++++++++++++++++++......+.++.......++++++++++++++++++++++++",
"++++++++++++++++++++++.....+...++.......++++++++++++++++++++++++",
"++++++++++++++++++++++.....++.+++.......++++++++++++++++++++++++",
"++++++++++++++++++++++.....+...++.......++++++++++++++++++++++++",
"++++++++++++++++++++++.....+.+..+........+++++++++++++++++++++++",
"+++++++++++++++++++++@....@.@@@..+.......+++++++++++++++++++++++",
"++++++++++++++++@@@@@.......@@@@.........@@+++++++++++++++++++++",
"++++++++@@@@@@@@@@@@@.....@@@@@@@........@@@@+++++++++++++++++++",
"+++++@@@@@@@@@@@@@@@+......+@@@@@@........@@@@@+++++++++++++++++",
"++++@@@@@@@@@@@@@++++......+++++++........@@@@@@@@@+++++++++++++",
"+@@@@@@@@@@@+++++++++.....+.+++++.........+++@@@@@@@@@++++++++++",
"@@@@@@@@@@+++++++++++.....+..+++..+.......++++++@@@@@@@@@+++++++",
"@@@@@@@@+++++++++++++....+++.+++.++........++++++++++@@@@@@@@@@@",
"@@@@@@@++++++++++++++....++++...+++........+++++++++++++++++++++",
"@@@@@++++++++++++++++....+++++..++++.......+++++++++++++++++++++",
"@@@+++++++++++++++++.....+++++....++.......+++++++++++++++++++++",
"++++++++++++++++++++.....++++.+++.++.......+++++++++++++++++++++",
"++++++++++++++++++++.....+++.+++++.++......+++++++++++++++++++++",
"+++++++++++++++++++O.....OO.O++++++........+++++++++++++++++++++",
"++++++++++++++++OOOO....OO.OOOOOOO++.......+++++++++++++++++++++",
"+++++++++++++ooOOOOO....O.OOOOOOOOOO.......+++++++++++++++++++++",
"+++++++++ooooooOOOOO......OOOOOOOOO.OO......OOO+++++++++++++++++",
"++++++oooooooooOOOOO.....OOOOOOOOO.OOO......OOOOOO++++++++++++++",
"+++ooooooooooooOOOO.....O.OOOOOO..OOOO......OOOOOOOO+++OO+++++++",
"oooooooooooooooOOOO....OOO.OOOO.OOOOOO......OOOOOOOOOOOOOOOOOOOO",
"oooooooooooooOOOOOO....OOOO....OOOOOOOO.....OOOOOOOOOOOOOOOOOOOO",
"ooooooooooOOOOOOOOO....OOOO....OOOOOO++.....OOOOOOOOOOOOOOOOOOOO",
"oooooooOOOOOOOOOOOO....OOO..OOO..O+++++.....++++OOOOOOOOOOOOOOOO",
"ooooooOOOOOOOOOOOO.....OO..OOOO++.+++++.....+++++++++OOOOOOOOOOO",
"oooOOOOOOOOOOOOOOO....OO..OOO+++++..++++....+++++++++++OOOOOOOOO",
"OOOOOOOOOOOOOOOOOO....O.OO++++++++@@..@@....++++++++++++++OOOOOO",
"OOOOOOOOOOOOOO..........++++++++@@@@@@............++++++++++OOOO",
"OOOOOOOOOOO..........++++++++++@@@@@@@@............+++++++++++OO",
"OOOOOOOOOO ..........+++++++++@@@@@@@@@............@++++++++++++",
"OOOOOOOOOO  ..........+++++++@@@@@@@@@@@...........@@@++++++++++",
"OOOOOOOOOO  ............++++@@@@@@@@@@@@............ @@@@+++++++",
"++++++++++   ..............@@@@@@@@@@............... @@@@@++++++",
"++++++++++     ....................................  @@@@@@@++++",
"++++++++++       .................................   +@@@@@@@@@+",
"+++++++++++            .........................     +++@@@@@@@@",
"@@@@@@@@@@@@                ...................      +++++@@@@@@",
"@@@@@@@@@@@@@                    .............      ++++++++@@@@",
"@@@@@@@@@@@@@@@                                    ++++++++++++@",
"@@@@@@@@@@@@@@@@@@@                              +++++++++++++++",
"@@@@@@@@@@@@@@@@@@@+++++++                      ++++++++++++++++"
};
