/* XPM */
static char *ea00f0b176c64bbfb4dde169a02c7605ayjFDnWM47v9zrFp[] = {
/* columns rows colors chars-per-pixel */
"64 64 6 1 ",
"  c black",
". c #FF7E00",
"X c #2F3699",
"o c #4D6DF3",
"O c #00B7EF",
"+ c white",
/* pixels */
"XXXXXXXXXXXXXXXXXXXXXXXXXXXXXXXXXXXXXXXXXXXXXXXXXXXXXXXXXXXXXXXX",
"XXXXXXXXXXXXXXXXXXXXXXXXXXXXXXXXXXXXXXXXXXXXXXXXXXXXXXXXXXXXXXXX",
"XXXXXXXXXXXXXXXXXXXXXXXXXXXXXXXXXXXXXXXXXXXXXXXXXXXXXXXXXXXXXXXX",
"XXXXXXXXXXXXXXXXXXXXXXXXXXXXXXXXXXXXXXXXXXXXXXXXXXXXXXXXXXXXXXXX",
"XXXXXXXXXXXXXXXXXXXXXXXXXXXXXXXXXXXXXXXXXXXXXXXXXXXXXXXXXXXXXXXX",
"XXXXXXXXXXXXXXXXXXXXXXXXXXXXXXXXXXXXXXXXXXXXXXXXXXXXXXXXXXXXXXXX",
"XXXXXXXXXXXXXXXXXXXXXXXXXXXXXXXXXXXXXXXXXXXXXXXXXXXXXXXXXXXXXXXX",
"XXXXXXXXXXXXXXXXXXXXXXXXXXXXXXXXXXXXXXXXXXXXXXXXXXXXXXXXXXXXXXXX",
"XXXXXXXXXXXXXXXXXXXXXXXXXXXXXXXXXXXXXXXXX..XXXXXXXXXXXXXXXXXXXXX",
"XXXXXXXXXXXXXXXXXXXXXXXXXXXXXXXXXXXXXXX...XXXXXXXXXXXXXXXXXXXXXX",
"XXXXXXXXXXXXXXXXXXXXXXXXXXXXXXXXXXXXX....XXXXXXXXXXXXXXXXXXXXXXX",
"XXXXXXXXXXXXXXXXXXXXXXXXXXXXXXXXXXXX....XXXXXXXXXXXXXXXXXXXXXXXX",
"XXXXXXXXXXOOOOOOOOOOOOOOOOOOOXXXXXX.....XXXXXXXXXXXXXXXXXXXXXXXX",
"XXXXXXXOOOOOOOOOOOOOOOOOOOOOOOOOXXX.....+XXXXXXXXXXXXXXXXXXXXXXX",
"XXXXOOOO....OOOOOOOOOOOOOOOOOOOOOOX.+++++XXXXXXXXXXXXXXXXXXXXXXX",
"XXOOOOOO.......OOOOOOOOOOOOOOOOOOOO......XXXXXXXXXXXXXXXXXXXXXXX",
"XOOOOOOOO.......OOOOOOOOOOOOOOOOOOO......XXXXXXXXXXXXXXXXXXXXXXX",
"OOOOOOOOOO..+....OOOOOOOOOOOOOOOOOO.......OOOOOXXXXXXXXXXXXXXXXX",
"OOOOOOOOOO..+++++OOOOOOOOOOOOOOOOOOO....++OOOOOOOOOOOXXXXXXXXXXX",
"OOOOOOOOOOO......+OOOOOOOOOOOOOOOOOO++++..OOOOOOOOOOOOOOOOOOOOOO",
"OOOOOOOOOOO.......OOOOOOOOOOOOOOOOOO......OOOOOOOOOOOOOOOOOOOOOO",
"OOOOOOOOOOO........OOOOOOOOOOOOOOOOO.....+OOOOOOOOOOOOOOOOOOOOOO",
"OOOOOOOOOOOO.......OOOOOOOOOOOOOOOOO..++++OOOOOOOOOOOOOOOOOOOOOO",
"OOOOOOOOOOOOO..+++++OOOOOOOOOOOOOOOO.++...OOOOOOOOOOOOOOOOOOOOOO",
"OOOOOOOOOOOOO.+.....O++++++++++OOOOO+.....OOOOOOOOOOOOOOOOOOOOOO",
"OOOOOOOOOOOOO.......+++++++++++++++++......OOOOOOOOOOOOOOOOOOOOO",
"OOOOOOOO++++++.......+OOO+++++++++++.....++OOOOOOOOOOOOOOOOOOOOO",
"OOOOO+++++++++.......OOOOOOO+++++++.++++++...OOOOOOOOOOOOOOOOOOO",
"OOOO++++++++++.......OOOOOO...............................OOOOOO",
"O+++++++++++OO...++++++......+.........+..........+++......OOOOO",
"++++++++++OOOO..+............+.........+..........++ ......OOOOO",
"++++++++OOOOOOO+.............++........+..........+  ......+++++",
"+++++++OOOOOOOO................++......++..................OOOOO",
"+++++OOOOOOOOOO.................+.......+++................OOOOO",
"+++OOOOOOOOOOOO.................+..........+..............OOOOOO",
"OOOOOOOOOOOOOOO.++++............+...........+.............OOOOOO",
"OOOOOOOOOOOOOOO.+...++..........+..........++............OOOOOOO",
"OOOOOOOOOOOOOOO......+++........+..........+....++......OOOOOOOO",
"OOOOOOOOOOOOOOO........+........++.........+...+..+++..OOOOOOOOO",
"OOOOOOOOOOOOOXX........+.........++.......+..........++OOOOOOOOO",
"OOOOOOOOOXXXXXX........++.........+.......+............OOOOOOOOO",
"OOOOOOXXXXXXXXX.........+.........+.......+............OOOOOOOOO",
"OOOXXXXXXXXXXXX........ooo.......++........+............OOOOOOOO",
"XXXXXXXXXXXXXXX.++++...ooooooo.............++...........oooooooo",
"XXXXXXXXXXXXXoo++..+++++oooooooooo..........+...........oooooooo",
"XXXXXXXXXXooooo........ooooooooooooooOOOO...++..........oooooooo",
"XXXXXXXoooooooo.......ooooooooooooOOOOOOOOOOOOOO.......ooooooooo",
"XXXXXXooooooooo.+++...oooooooooOOOOOOOOOOOOOOOOOOOOOOooooooooooo",
"XXXoooooooooooo+..++++oooooooOOOOOOOOOOOOOOOOOOOOOOOOOOooooooooo",
"ooooooooooooooo......oooooOOOOOOOO++++++++++OOOOOOOOOOOOOOoooooo",
"oooooooooooooo.......oooOOOOOOOO++++++++++++++++OOOOOOOOOOOOoooo",
"oooooooooooooo......oOOOOOOOOOO++++++++++++++++++OOOOOOOOOOOOOoo",
"oooooooooooooo.....OOOOOOOOOOO++++++++++++++++++++++OOOOOOOOOOOO",
"ooooooooooooo+++++.OOOOOOOOOO+++++++++++++++++++++++++OOOOOOOOOO",
"ooooooooooOOO....OOOOOOOOOOO+++++++++++++++++++++++++++++OOOOOOO",
"OOOOOOOOOOOO....OOOOOOOOOO++++++++++++++++++++++++++++++++OOOOOO",
"OOOOOOOOOOO....OOOOOOOO++++++++++++++OOOOOOOOOOOOOO+++++++++OOOO",
"OOOOOOOOOOO..OOOOOOO++++++++++++++OOOOOOOOOOOOOOOOOOOO+++++++++O",
"OOOOOOOOOOOOOOOOO++++++++++++++OOOOOOOOOOOOOOOOOOOOOOOOO++++++++",
"++++++++++++++++++++++++++++++OOOOOOOOOOOOOOOOOOOOOOOOOOOO++++++",
"++++++++++++++++++++++++++++OOOOOOOOOOOOOOOOOOOOOOOOOOOOOOOO++++",
"++++++++++++++++++++++++++OOOOOOOOOOOOOOOOOOOOOOOOOOOOOOOOOOOOO+",
"+++++++++++++++++++++++++OOOOOOOOOOOOOOOOOOOOOOOOOOOOOOOOOOOOOOO",
"+++++++++++++++++++OOOOOOOOOOOOOOOOOOOOOOOOOOOOOOOOOOOOOOOOOOOOO"
};
