/* XPM */
static char *_b362e2438074020da0345b4f5e582273ZowMRyGF77EfmyF[] = {
/* columns rows colors chars-per-pixel */
"64 64 4 1 ",
"  c #2F3699",
". c #4D6DF3",
"X c #00B7EF",
"o c white",
/* pixels */
"                                                                ",
"                                                                ",
"                                                                ",
"                                                                ",
"                                                                ",
"                                                                ",
"                                                                ",
"                                                                ",
"                                                                ",
"                                                                ",
"                       ...                                      ",
"                     ...........................                ",
"          XXXXXXXXXXXXXXXXXXX..........................         ",
"       XXXXXXXXXXXXXXXXXXXXXXXXX...........................     ",
"    XXXXXXXXXXXXXXXXXXXXXXXXXXXXXX...........................   ",
"  XXXXXXXXXXXXXXXXXXXXXXXXXXXXXXXXXXXX........................  ",
" XXXXXXXXXXXXXXXXXXXXXXXXXXXXXXXXXXXXXXX........................",
"XXXXXXXXXXXXXXXXXXXXXXXXXXXXXXXXXXXXXXXXXXXXXXX.................",
"XXXXXXXXXXXXXXXXXXXXXXXXXXXXXXXXXXXXXXXXXXXXXXXXXXXXX...........",
"XXXXXXXXXXXXXXXXXXXXXXXXXXXXXXXXXXXXXXXXXXXXXXXXXXXXXXXXXXXXXXXX",
"XXXXXXXXXXXXXXXXXXXXXXXXXXXXXXXXXXXXXXXXXXXXXXXXXXXXXXXXXXXXXXXX",
"XXXXXXXXXXXXXXXXXXXXXXXXXXXXXXXXXXXXXXXXXXXXXXXXXXXXXXXXXXXXXXXX",
"XXXXXXXXXXXXXXXXXXXXXXXXXXXXXXXXXXXXXXXXXXXXXXXXXXXXXXXXXXXXXXXX",
"XXXXXXXXXXXXXXXXXXXXXXXXXXXXXXXXXXXXXXXXXXXXXXXXXXXXXXXXXXXXXXXX",
"XXXXXXXXXXXXXXXXXXXXXooooooooooXXXXXXXXXXXXXXXXXXXXXXXXXXXXXXXXX",
"XXXXXXXXXXXXXoooooooooooooooooooooooXXXXXXXXXXXXXXXXXXXXXXXXXXXX",
"XXXXXXXXooooooooooooooXXXooooooooooooooXXXXXXXXXXXXXXXXXXXXXXXXX",
"XXXXXoooooooooooooXXXXXXXXXXoooooooooooooooXXXXXXXXXXXXXXXXXXXXX",
"XXXXoooooooooooXXXXXXXXXXXXXXXoooooooooooooooXXXXXXXXXXXXXXXXXXX",
"XoooooooooooXXXXXXXXXXXXXXXXXXXXoooooooooooooooooXXXXXXXXXXXXXXX",
"ooooooooooXXXXXXXXXXXXXXXXXXXXXXXXooooooooooooooooooooXXXXXXXXXX",
"ooooooooXXXXXXXXXXXXXXXXXXXXXXXXXXXXoooooooooooooooooooooooooooo",
"oooooooXXXXXXXXXXXXXXXXXXXXXXXXXXXXXXXXooooooooooooooooooooXXXXX",
"oooooXXXXXXXXXXXXXXXXXXXXXXXXXXXXXXXXXXXXXXXXoooooooooooXXXXXXXX",
"oooXXXXXXXXXXXXXXXXXXXXXXXXXXXXXXXXXXXXXXXXXXXXXXXXXXXXXXXXXXXXX",
"XXXXXXXXXXXXXXXXXXXXXXXXXXXXXXXXXXXXXXXXXXXXXXXXXXXXXXXXXXXXXXXX",
"XXXXXXXXXXXXXXXXXXXXXXXXX  ......XXXXXXXXXXXXXXXXXXXXXXXXXXXXXXX",
"XXXXXXXXXXXXXXXXXXX       ...........XXXXXXXXXXXXXXXXXXXXXXXXXXX",
"XXXXXXXXXXXXXXXX        .................XXXXXXXXXXXXXXXXXXXXXXX",
"XXXXXXXXXXXXX    ...........................XXXXXXXXXXXXXXXXXXXX",
"XXXXXXXXX       ...............................XXXXXXXXXXXXXXXXX",
"XXXXXX        .....................................XXXXXXXXXXXXX",
"XXX          .........................................XXXXXXXXXX",
"            ....................................................",
"           .....................................................",
"         ............................XXXXXXXXX..................",
"       ...........................XXXXXXXXXXXXXXXX..............",
"   ............................XXXXXXXXXXXXXXXXXXXXXX...........",
".............................XXXXXXXXXXXXXXXXXXXXXXXXXX.........",
"..........................XXXXXXXXooooooooooXXXXXXXXXXXXXX......",
"........................XXXXXXXXooooooooooooooooXXXXXXXXXXXX....",
".....................XXXXXXXXXXooooooooooooooooooXXXXXXXXXXXXX..",
"..................XXXXXXXXXXXXooooooooooooooooooooooXXXXXXXXXXXX",
".............XXXXXXXXXXXXXXXXoooooooooooooooooooooooooXXXXXXXXXX",
"..........XXXXXXXXXXXXXXXXXXoooooooooooooooooooooooooooooXXXXXXX",
"XXXXXXXXXXXXXXXXXXXXXXXXXXooooooooooooooooooooooooooooooooXXXXXX",
"XXXXXXXXXXXXXXXXXXXXXXXooooooooooooooXXXXXXXXXXXXXXoooooooooXXXX",
"XXXXXXXXXXXXXXXXXXXXooooooooooooooXXXXXXXXXXXXXXXXXXXXoooooooooX",
"XXXXXXXXXXXXXXXXXooooooooooooooXXXXXXXXXXXXXXXXXXXXXXXXXoooooooo",
"ooooooooooooooooooooooooooooooXXXXXXXXXXXXXXXXXXXXXXXXXXXXoooooo",
"ooooooooooooooooooooooooooooXXXXXXXXXXXXXXXXXXXXXXXXXXXXXXXXoooo",
"ooooooooooooooooooooooooooXXXXXXXXXXXXXXXXXXXXXXXXXXXXXXXXXXXXXo",
"oooooooooooooooooooooooooXXXXXXXXXXXXXXXXXXXXXXXXXXXXXXXXXXXXXXX",
"oooooooooooooooooooXXXXXXXXXXXXXXXXXXXXXXXXXXXXXXXXXXXXXXXXXXXXX"
};
