/* XPM */
static char *_fc58af57f454c43cee95da6a7c3ec40jc3nI5PdgXOOOHhI[] = {
/* columns rows colors chars-per-pixel */
"64 64 7 1 ",
"  c black",
". c #990030",
"X c #ED1C24",
"o c #2F3699",
"O c #4D6DF3",
"+ c #00B7EF",
"@ c white",
/* pixels */
"oooooooooooooooooooooooooooooooooooooooooooooooooooooooooooooooo",
"oooooooooooooooooooooooooooooooooooooooooooooooooooooooooooooooo",
"ooooooooooooooooooooooooooooooooXXXXoooooooooooooooooooooooooooo",
"oooooooooooooooooooooooooooooooo XXXXXXooooooooooooooooooooooooo",
"oooooooooooooooooooooooooooooooo XXXXooooooooooooooooooooooooooo",
"oooooooooooooooooooooooooooooooo  oooooooooooooooooooooooooooooo",
"oooooooooooooooooooooooooooooo      oooooooooooooooooooooooooooo",
"ooooooooooooooooooooooooooooo         oooooooooooooooooooooooooo",
"ooooooooooooooooooooooooooooo         oooooooooooooooooooooooooo",
"oooooooooooooooooooooooooooooo        oooooooooooooooooooooooooo",
"oooooooooooooooooooooooOOOoooooo  oooooooooooooooooooooooooooooo",
"oooooooooooooooooooooOOOOOOOOOOO  OOOOOO@@@OOOOOoooooooooooooooo",
"oooooooooo+++++++++++@@@@@@@@@@@@@@@@@@@@   OOOOOOOOOOOooooooooo",
"ooooooo++++++++++++++                    @@@OOOOOOOOOOOOOOOooooo",
"oooo+++++++++++++++++@@@@@@@@@@@  @@@@@@@@@@OOOOOOOOOOOOOOOOOooo",
"oo++++++++++++++++++++@@@@@@@@@@  @@@@@@@@@@OOOOOOOOOOOOOOOOOOoo",
"o+++++++++++++++++++++@@@@@@@@@@  @@@@@@@@@@@OOOOOOOOOOOOOOOOOOO",
"+++++++++++++++++++++@@@@@@@@@@@  @@@@@@@@@@@++OOOOOOOOOOOOOOOOO",
"++++++++++++++++++++@@@@@@@@@@@@  @@@@@@@@@@@++++++++OOOOOOOOOOO",
"++++++++++++++++++++@@@@@@@@@@@@  @@@@@@@@@@@+++++++++++++++++++",
"++++++++++++++++++++@@@@@@@@@@@@  @@@@@@@@@@@@++++++++++++++++++",
"++++++++++++++++++++  @@@@@@@@@@  @@@@@       ++++++++++++++++++",
"++++++++++++++++++++@      @@@@@  @@   @@@@@@@++++++++++++++++++",
"+..XXX++++++++++++++@@@@@@           @@@@@@@@@++++++++++++++XXX+",
"+++.XXX++++++++++++++@@@@@@@@@@@  @@@@@@@@@@@@@+++++++++++XXXX++",
"++++..XXX++++@@@@@@++@@@@@@@@@@@  @@@@@@@@@@@@@+++++++++XXXXXX++",
"+++++...XX@@@@@@@@@@+@@@@@@@@@@@  @@@@@@@@@@@@@+++++++XXXXXX.+++",
"+++++@..XXX@@@@@@@+++@@@@@@@@@@@  @@@@@@@      ++++++XXXXXX..+++",
"++++@@...XXXX@@++++++@@   @@@@@@  @@@@    @@@@@+++++XXXXXX...+++",
"+@@@@@@@..XXXX++++++++@@@@             @@@@@@@@@+++XXXXX.....+++",
"@@@@@@@@..XXXXX+++++++@@@@@@@@@@  @@@@@@@@@@@++++++XXXXX.....+++",
"@@@@@@@@+..XXXXXX++++++++++++++@@@@@@@@@@@@@++++++XXXX.......+++",
"@@@@@@@++....XXXXXXX++++++++++++  +++++@@@@+++++++XXX.......++++",
"@@@@@+++++....XXXXXXXXXX++++++++  ++++++++++++++++XX........++++",
"@@@+++++++......XXXXXXXXXX++++++  +++++++++++++++XX........+++++",
"+++++++++++........XXXXXXXXXX+++  ++++++++++++++XX.........+++++",
"+++++++++++..........XXXXXXXXXXXXXXXXXXXXXXXXXXXXX........++++++",
"++++++++++++............XXXXXXXXXXXXXXXXXXXXX...XX.......+++++++",
"++++++++++++..............XXXXXXXXXXXXXX.................+++++++",
"+++++++++++++...       ....    .........................++++++++",
"+++++++++oooo.....  ......  ..  .       .... ..........+++++++++",
"++++++oooooooo..... ....... ..  . ........  ..........++++++++++",
"+++ooooooooooOO.... .     .    ...    .....  ........O++++++++++",
"ooooooooooooOOO.... ....... ..  .. ....... .  ......OOOOOOOOOOOO",
"oooooooooooOOOOO........... ...  .. ...... .. .....OOOOOOOOOOOOO",
"oooooooooOOOOOOOO............... ..       ........OOOOOOOOOOOOOO",
"oooooooOOOOOOOOOO.................. .............+OOOOOOOOOOOOOO",
"oooOOOOOOOOOOOOOOOO..............................++++OOOOOOOOOOO",
"OOOOOOOOOOOOOOOOOOO.............................+++++++OOOOOOOOO",
"OOOOOOOOOOOOOOOOOOOO...........................+++++++++++OOOOOO",
"OOOOOOOOOOOOOOOOOOOOO........................@@@++++++++++++OOOO",
"OOOOOOOOOOOOOOOOOOOOO++++++++++@@@@@@@@@@@@@@@@@@+++++++++++++OO",
"OOOOOOOOOOOOOOOOOO++++++++++++@@@@@@@@@@@@@@@@@@@@@@++++++++++++",
"OOOOOOOOOOOOO++++++++++++++++@@@@@@@@@@@@@@@@@@@@@@@@@++++++++++",
"OOOOOOOOOO++++++++++++++++++@@@@@@@@@@@@@@@@@@@@@@@@@@@@@+++++++",
"++++++++++++++++++++++++++@@@@@@@@@@@@@@@@@@@@@@@@@@@@@@@@++++++",
"+++++++++++++++++++++++@@@@@@@@@@@@@@++++++++++++++@@@@@@@@@++++",
"++++++++++++++++++++@@@@@@@@@@@@@@++++++++++++++++++++@@@@@@@@@+",
"+++++++++++++++++@@@@@@@@@@@@@@+++++++++++++++++++++++++@@@@@@@@",
"@@@@@@@@@@@@@@@@@@@@@@@@@@@@@@++++++++++++++++++++++++++++@@@@@@",
"@@@@@@@@@@@@@@@@@@@@@@@@@@@@++++++++++++++++++++++++++++++++@@@@",
"@@@@@@@@@@@@@@@@@@@@@@@@@@+++++++++++++++++++++++++++++++++++++@",
"@@@@@@@@@@@@@@@@@@@@@@@@@+++++++++++++++++++++++++++++++++++++++",
"@@@@@@@@@@@@@@@@@@@+++++++++++++++++++++++++++++++++++++++++++++"
};
