/* XPM */
static char *_b83edf2b36e4dee92141d9b3ec2e830qACscTQyEhypnlXx[] = {
/* columns rows colors chars-per-pixel */
"64 64 2 1 ",
"  c #22B14C",
". c #A8E61D",
/* pixels */
"                                                                ",
"                                                                ",
"                                             .                  ",
"   ..                                        ..                 ",
"    ..                                       ...                ",
"    ....                                     ....               ",
"     ....                                    .....              ",
"     ....                                    .....              ",
"     ......                  ..              ......             ",
"      ......               ....             ........            ",
"      ........           ......             .........           ",
"      .........         ........           ...........          ",
"    .  .........       .........           ...........          ",
"   ..  ...........    ..........          .............         ",
" ....  .........................         ..............         ",
".....  ..........................       ................       .",
".....  ..........................      .....  ..........      ..",
".....  ...........................    ......  ...........     ..",
"...... .................... .......   ......   ...........   ...",
"...... ................ ...  ......  .......   ...........  ....",
".....................  ....  ...............    ................",
"...................   ....    .............      ...............",
"..................    ....    .............      ...............",
".....      .....     .....     ............       ..............",
".         .....     ......      ...........       ..............",
"        ......     ......       ..........        ...........   ",
"       ......      ......       ..........        .........     ",
"      ......       ......        .........         ......       ",
"     ......       .......        ........          .....        ",
"     .....        ......         ........          .....        ",
"    .....         .....           ......           ....         ",
"    .....         .....           .....             .           ",
"    ....          .....           ....              .           ",
"    ....          ....            ....                          ",
"    ...           ...             ..                            ",
"    ..            ...                                           ",
"    .             ..                                            ",
"    .              .                                            ",
"                                 .....            ...           ",
"                                  ......          .......       ",
"                                  ........         .........    ",
"                                   .........        ........... ",
".                                   ..........      ............",
"..           .                      ...........     ............",
"...         ..                       ...........     ...........",
"...         ..                         ..........    ...........",
"....       ....                        ...........   ...........",
"....       ....                        ............  ...........",
".....     .....     ..                  ...........  ...........",
".....     .....      ...                ............ ...........",
"......   .......      ......             .......................",
"......   ........      .......           .......................",
"......   ........       .........        .......................",
".......  .........       ...........     .......................",
"....... ...........       ...........     ......................",
"....... ............      ............    ......................",
"....... ............       ............   ......................",
".....................      .............. ......................",
"......................     .....................................",
"........................   .....................................",
".........................   ....................................",
"........................... ....................................",
"................................................................",
"................................................................"
};
